<?xml version="1.0" standalone="no"?><!DOCTYPE svg PUBLIC "-//W3C//DTD SVG 1.1//EN" "http://www.w3.org/Graphics/SVG/1.1/DTD/svg11.dtd"><svg t="1623827945767" class="icon" viewBox="0 0 1024 1024" version="1.1" xmlns="http://www.w3.org/2000/svg" p-id="1179" xmlns:xlink="http://www.w3.org/1999/xlink" width="200" height="200"><defs><style type="text/css"></style></defs><path d="M778.62744175 873.45883488l-266.92706827-266.92706827-266.96964256 266.96964256c-26.01609712 26.01609712-68.19515747 25.99521163-94.21205788-0.02168879-26.01609712-26.01609712-26.03698262-68.19515747-0.02088549-94.21125459l266.96964256-266.96964256-266.92867486-266.92867485c-26.0377859-26.0377859-26.03698262-68.19515747-0.0208855-94.21125459 26.00645766-26.00645766 68.17587856-26.01449054 94.21125459 0.02088549l266.92706829 266.92706828 266.96964255-266.96964255c26.00645766-26.00645766 68.19515747-25.99521163 94.21125459 0.0208855 26.01690041 26.01690041 26.02734315 68.20640351 0.02168878 94.21205787l-266.97044585 266.97044585 266.92706828 266.92706828c26.0377859 26.0377859 26.02894973 68.20479693 0.02329536 94.21045129-26.01690041 26.01529383-68.1726654 26.01449055-94.2104513-0.02329536z" fill="#101010" p-id="1180"></path></svg>