<?xml version="1.0" standalone="no"?><!DOCTYPE svg PUBLIC "-//W3C//DTD SVG 1.1//EN" "http://www.w3.org/Graphics/SVG/1.1/DTD/svg11.dtd"><svg t="1623146169427" class="icon" viewBox="0 0 1024 1024" version="1.1" xmlns="http://www.w3.org/2000/svg" p-id="1873" xmlns:xlink="http://www.w3.org/1999/xlink" width="200" height="200"><defs><style type="text/css"></style></defs><path d="M512 40.96C252.1088 40.96 40.96 252.1088 40.96 512s211.1488 471.04 471.04 471.04 471.04-211.1488 471.04-471.04S771.8912 40.96 512 40.96z m0 40.96c237.7728 0 430.08 192.3072 430.08 430.08s-192.3072 430.08-430.08 430.08S81.92 749.7728 81.92 512 274.2272 81.92 512 81.92z m5.9392 174.24384c-76.3904 0-127.05792 46.2848-138.09664 116.79744-0.7168 4.42368 1.45408 7.33184 5.87776 8.06912l46.2848 8.13056c4.42368 0.73728 7.33184-1.47456 8.06912-5.87776 8.8064-44.81024 35.2256-69.79584 76.36992-69.79584 41.8816 0 71.22944 26.46016 71.22944 68.32128 0 24.9856-8.8064 41.86112-34.46784 77.1072l-49.2544 67.56352c-15.42144 21.31968-21.99552 36.74112-21.99552 66.1504v30.1056c0 4.38272 2.92864 7.35232 7.33184 7.2704h48.47616c4.4032 0 7.31136-2.92864 7.31136-7.33184v-23.47008c0-24.9856 4.44416-35.26656 19.12832-55.0912l49.19296-67.584c24.9856-34.52928 37.43744-60.2112 37.43744-95.49824 0-72.704-53.61664-124.86656-132.9152-124.86656z m-32.29696 429.75232c-4.42368 0-7.3728 2.9696-7.3728 7.3728v63.16032c0 4.4032 2.92864 7.31136 7.3728 7.31136h55.82848c4.38272 0 7.33184-2.88768 7.33184-7.31136v-63.16032c0-4.38272-2.92864-7.3728-7.33184-7.3728h-55.82848z" p-id="1874"></path></svg>
