<?xml version="1.0" standalone="no"?><!DOCTYPE svg PUBLIC "-//W3C//DTD SVG 1.1//EN" "http://www.w3.org/Graphics/SVG/1.1/DTD/svg11.dtd"><svg t="1630572714765" class="icon" viewBox="0 0 1024 1024" version="1.1" xmlns="http://www.w3.org/2000/svg" p-id="18811" xmlns:xlink="http://www.w3.org/1999/xlink" width="128" height="128"><defs><style type="text/css"></style></defs><path d="M512 1024C229.1712 1024 0 794.8288 0 512S229.1712 0 512 0s512 229.1712 512 512-229.1712 512-512 512zM476.5696 464.9984h-185.856a46.7968 46.7968 0 0 0-46.6944 46.592 46.4896 46.4896 0 0 0 46.6432 46.592h185.9072v185.856a46.7968 46.7968 0 0 0 46.592 46.6944c25.9072 0 46.592-20.8896 46.592-46.6432V558.08h185.9072a46.7968 46.7968 0 0 0 46.6432-46.592 46.4896 46.4896 0 0 0-46.6432-46.5408h-185.9072V279.0912a46.7968 46.7968 0 0 0-46.592-46.6944 46.4896 46.4896 0 0 0-46.592 46.6944v185.9072z" fill="#FFBA50" p-id="18812"></path></svg>
