<?xml version="1.0" standalone="no"?><!DOCTYPE svg PUBLIC "-//W3C//DTD SVG 1.1//EN" "http://www.w3.org/Graphics/SVG/1.1/DTD/svg11.dtd"><svg t="1623113995980" class="icon" viewBox="0 0 1024 1024" version="1.1" xmlns="http://www.w3.org/2000/svg" p-id="3475" xmlns:xlink="http://www.w3.org/1999/xlink" width="200" height="200"><defs><style type="text/css"></style></defs><path d="M910.208 170.666667H113.792C50.944 170.752 0 223.573333 0 288.853333v531.626667c0.042667 65.28 50.986667 118.101333 113.792 118.186667h796.416C973.056 938.581333 1024 885.76 1024 820.48V288.853333c-0.042667-65.28-50.986667-118.101333-113.792-118.186666z m56.917333 649.813333c-0.042667 32.64-25.514667 59.093333-56.917333 59.136H113.792c-31.402667-0.085333-56.874667-26.453333-56.917333-59.093333V288.810667c0.042667-32.597333 25.514667-59.008 56.917333-59.050667h796.416c31.402667 0 56.874667 26.453333 56.917333 59.050667v531.712z" fill="#ff9b44" p-id="3476"></path><path d="M792.32 575.786667c29.653333-24.490667 48.810667-60.501333 48.810667-101.12C841.130667 401.152 779.605333 341.333333 704 341.333333c-75.648 0-137.130667 59.818667-137.130667 133.333334 0 40.618667 19.2 76.629333 48.810667 101.12-61.482667 31.146667-103.68 93.610667-103.68 165.546666 0 14.72 12.288 26.666667 27.434667 26.666667 15.146667 0 27.434667-11.946667 27.434666-26.666667 0-73.514667 61.525333-133.333333 137.130667-133.333333s137.130667 59.818667 137.130667 133.333333c0 14.72 12.288 26.666667 27.434666 26.666667 15.146667 0 27.434667-11.946667 27.434667-26.666667 0-71.936-42.154667-134.4-103.68-165.546666zM621.696 469.333333c0-47.146667 36.864-85.333333 82.304-85.333333s82.261333 38.186667 82.261333 85.333333-36.821333 85.333333-82.261333 85.333334c-45.44-0.042667-82.261333-38.229333-82.304-85.333334z m-137.130667-69.333333H155.434667c-15.146667 0-27.434667 13.141333-27.434667 29.312 0 16.213333 12.288 29.354667 27.434667 29.354667h329.130666c15.146667 0 27.434667-13.141333 27.434667-29.354667 0-16.213333-12.288-29.312-27.434667-29.312z m-27.434666 144H155.434667c-15.146667 0-27.434667 13.141333-27.434667 29.312 0 16.213333 12.288 29.354667 27.434667 29.354667h301.696c15.146667 0 27.434667-13.141333 27.434666-29.354667 0-16.213333-12.288-29.312-27.434666-29.312z m-82.261334 144H155.434667c-15.146667 0-27.434667 13.141333-27.434667 29.354667 0 16.213333 12.288 29.312 27.434667 29.312h219.434666c15.146667 0 27.392-13.141333 27.392-29.312 0-16.213333-12.245333-29.354667-27.392-29.354667z" fill="#ff9b44" p-id="3477"></path></svg>
