<?xml version="1.0" standalone="no"?><!DOCTYPE svg PUBLIC "-//W3C//DTD SVG 1.1//EN" "http://www.w3.org/Graphics/SVG/1.1/DTD/svg11.dtd"><svg t="1623114592456" class="icon" viewBox="0 0 1170 1024" version="1.1" xmlns="http://www.w3.org/2000/svg" p-id="10258" xmlns:xlink="http://www.w3.org/1999/xlink" width="228.515625" height="200"><defs><style type="text/css"></style></defs><path d="M947.712 602.550857l-8.045714-3.145143 6.802285-5.266285a202.971429 202.971429 0 0 0 80.237715-161.426286c0-113.225143-93.769143-205.312-209.115429-205.312-115.273143 0-209.115429 92.16-209.115428 205.312 0 63.195429 29.257143 122.002286 80.310857 161.426286l6.802285 5.266285-8.045714 3.145143c-134.729143 52.882286-221.769143 178.834286-221.769143 320.731429v70.070857c0 16.603429 13.750857 30.134857 30.72 30.134857h642.340572c16.822857 0 30.72-13.531429 30.72-30.134857v-70.070857c0-141.897143-87.04-267.849143-221.842286-320.731429zM669.842286 432.713143c0-80.018286 66.340571-145.115429 147.748571-145.115429 81.481143 0 147.748571 65.097143 147.748572 145.115429 0 80.018286-66.267429 145.115429-147.748572 145.115428-81.408 0-147.748571-65.097143-147.748571-145.115428z m438.272 530.578286H527.140571v-40.009143c0-157.257143 130.340571-285.257143 290.523429-285.257143s290.450286 128 290.450286 285.257143v40.009143zM404.992 443.611429L256.365714 590.409143l48.128 35.035428 165.522286-163.620571v-261.12h-65.024v242.907429z" fill="#999999" p-id="10259"></path><path d="M78.628571 504.685714a353.499429 353.499429 0 0 1 50.176-270.409143 361.033143 361.033143 0 0 1 228.937143-156.233142 367.396571 367.396571 0 0 1 336.310857 100.132571l71.68-25.380571A440.32 440.32 0 0 0 434.468571 0.365714c-30.573714 0-61.366857 3.291429-91.501714 9.654857A430.884571 430.884571 0 0 0 69.851429 196.608 421.741714 421.741714 0 0 0 9.874286 519.314286c36.717714 169.033143 170.861714 298.715429 342.235428 331.190857l44.982857-63.634286c-157.549714-15.36-284.891429-127.707429-318.464-282.112" fill="#999999" p-id="10260"></path></svg>
