<?xml version="1.0" standalone="no"?><!DOCTYPE svg PUBLIC "-//W3C//DTD SVG 1.1//EN" "http://www.w3.org/Graphics/SVG/1.1/DTD/svg11.dtd"><svg t="1623114498544" class="icon" viewBox="0 0 1024 1024" version="1.1" xmlns="http://www.w3.org/2000/svg" p-id="8714" xmlns:xlink="http://www.w3.org/1999/xlink" width="200" height="200"><defs><style type="text/css"></style></defs><path d="M667.76 405.828s0-0.04 0 0h-0.2c-0.321 0-0.562 0.16-0.843 0.2a26.117 26.117 0 0 0-25.234 25.998v267.27c0 14.482 11.754 26.277 26.237 26.277h267.47l0.482-0.12a25.917 25.917 0 0 0 25.475-26.118c0.04-161.798-131.509-293.386-293.387-293.507z m26.238 267.19v-213.15a241.313 241.313 0 0 1 213.19 213.15h-213.19z" fill="#ff9b44" p-id="8715"></path><path d="M888.853 767.577a26.238 26.238 0 0 0-32.897 17.411c-27.842 92.393-111.49 154.457-208.977 154.457a219.208 219.208 0 0 1-218.566-218.646 218.285 218.285 0 0 1 156.984-209.86 26.318 26.318 0 0 0-14.804-50.43 270.88 270.88 0 0 0-194.735 260.25 271.482 271.482 0 0 0 271.16 271.2h1.164a268.353 268.353 0 0 0 258.203-191.605 25.676 25.676 0 0 0-1.885-19.899 26.679 26.679 0 0 0-15.647-12.878z" fill="#ff9b44" p-id="8716"></path><path d="M254.82 878.184v0.08h-85.813a35.465 35.465 0 0 1-35.385-35.545V535.411h0.24V171.416c0-19.217 15.888-34.863 35.586-34.863h106.635v34.863c0 19.257 15.887 34.903 35.505 34.903H613.68a35.264 35.264 0 0 0 35.586-34.903v-34.863h88.822c19.578 0 35.505 15.646 35.505 34.863v226.068c25.274 8.906 49.185 20.62 71.05 35.224V136.553c0.08-38.474-31.734-69.686-71.05-69.686H649.225a35.184 35.184 0 0 0-35.545-34.863H311.588a35.224 35.224 0 0 0-35.505 34.863h-142.22c-39.236 0-71.05 31.212-71.05 69.726v741.671c0 39.276 31.734 71.09 70.77 71.09H254.82v-0.04h135.24a295.593 295.593 0 0 1-41.683-71.13H254.82z" fill="#ff9b44" p-id="8717"></path><path d="M631.533 398.005v-17.371a17.652 17.652 0 0 0-17.772-17.452H293.815a17.652 17.652 0 0 0-17.692 17.452v17.371a17.652 17.652 0 0 0 17.692 17.452H613.72a17.732 17.732 0 0 0 17.813-17.452zM276.083 572.28v17.492a17.652 17.652 0 0 0 17.692 17.532h79.716c7.823-18.415 17.21-35.987 28.484-52.355h-108.16a17.572 17.572 0 0 0-17.732 17.331z" fill="#ff9b44" p-id="8718"></path></svg>
